# xmcd CD database file
#
# Track frame offsets:
#	150
#	21780
#	42065
#	59972
#	81307
#	100415
#	119982
#	143842
#	171840
#	195065
#	222097
#
# Disc length: 3154 seconds
#
# Revision: 0
# Processed by: cddbd v1.5.1PL2 Copyright (c) Steve Scherf et al.
# Submitted via: CDex 1.51
#
DISCID=9f0c500b
DTITLE=The Mighty Popo - Tamba
DYEAR=1996
DGENRE=Blues
TTITLE0=Got To Be Strong
TTITLE1=Agasaza
TTITLE2=Oh Bye Bye
TTITLE3=Kumbuke
TTITLE4=Found New Love
TTITLE5=Isimbi
TTITLE6=Why
TTITLE7=So Far Away
TTITLE8=Keep It Simple
TTITLE9=Blues Dream
TTITLE10=Poor Radio
EXTD=YEAR: 1996
EXTT0=
EXTT1=
EXTT2=
EXTT3=
EXTT4=
EXTT5=
EXTT6=
EXTT7=
EXTT8=
EXTT9=
EXTT10=
PLAYORDER=
